<svg xmlns="http://www.w3.org/2000/svg" viewBox="0 0 100 100"><rect width="100" height="100" rx="18" fill="#14151a"/><g fill="none" stroke="#e3c179" stroke-width="2.87" stroke-linecap="round" stroke-linejoin="round"><g transform="translate(50 50) scale(1.3) translate(-50 -50)"><g stroke-width="0.92"><g transform="translate(68 50) rotate(90)"><rect x="-9" y="-5" width="18" height="10" rx="5"/><rect x="-5.6" y="-2" width="11.2" height="4" rx="2"/></g><g transform="translate(62.73 62.73) rotate(45)"><rect x="-9" y="-5" width="18" height="10" rx="5"/><rect x="-5.6" y="-2" width="11.2" height="4" rx="2"/></g><g transform="translate(50 68) rotate(0)"><rect x="-9" y="-5" width="18" height="10" rx="5"/><rect x="-5.6" y="-2" width="11.2" height="4" rx="2"/></g><g transform="translate(37.27 62.73) rotate(135)"><rect x="-9" y="-5" width="18" height="10" rx="5"/><rect x="-5.6" y="-2" width="11.2" height="4" rx="2"/></g><g transform="translate(32 50) rotate(90)"><rect x="-9" y="-5" width="18" height="10" rx="5"/><rect x="-5.6" y="-2" width="11.2" height="4" rx="2"/></g><g transform="translate(37.27 37.27) rotate(45)"><rect x="-9" y="-5" width="18" height="10" rx="5"/><rect x="-5.6" y="-2" width="11.2" height="4" rx="2"/></g><g transform="translate(50 32) rotate(0)"><rect x="-9" y="-5" width="18" height="10" rx="5"/><rect x="-5.6" y="-2" width="11.2" height="4" rx="2"/></g><g transform="translate(62.73 37.27) rotate(135)"><rect x="-9" y="-5" width="18" height="10" rx="5"/><rect x="-5.6" y="-2" width="11.2" height="4" rx="2"/></g></g></g></g></svg>
